<?xml version="1.0" encoding="utf-8"?>
<!-- Generator: Adobe Illustrator 26.5.0, SVG Export Plug-In . SVG Version: 6.00 Build 0)  -->
<svg version="1.1" id="Layer_1" xmlns="http://www.w3.org/2000/svg" xmlns:xlink="http://www.w3.org/1999/xlink" x="0px" y="0px"
	 viewBox="0 0 512 512" style="enable-background:new 0 0 512 512;" xml:space="preserve">
<style type="text/css">
	.st0{fill:#fff;}
</style>
<g id="XMLID_46_">
	<path id="XMLID_48_" class="st0" d="M6.87,244.66H2.38c-1.54,0-2.38-0.56-2.38-2.1c0-1.4,0.84-2.1,2.38-2.1h4.49v-3.93
		c0-6.87,3.51-10.38,10.38-10.38c2.67,0,5.05,0.56,7.01,1.54c2.38,1.54,3.51,3.65,3.51,6.17c0,1.82-0.56,2.52-1.96,2.52
		c-0.98,0-1.82-0.56-2.1-1.54c-0.56-1.82-1.12-2.95-1.54-3.37c-0.84-0.98-2.52-1.54-4.91-1.54c-4.35,0-6.17,2.1-6.17,6.17v3.93h8.14
		c1.82,0,2.67,0.56,2.67,2.1c0,1.4-0.98,2.1-2.67,2.1h-8.14v25.95c0,1.54-0.56,2.38-1.96,2.38s-1.96-0.84-1.96-2.38L6.87,244.66z"/>
	<path id="XMLID_52_" class="st0" d="M43.2,268.36V244.8h-6.03c-1.68,0-2.52-0.56-2.52-2.1c0-1.4,0.84-2.1,2.52-2.1h8
		c1.4,0,2.1,1.12,2.1,3.51c2.52-2.67,5.05-4.07,8-4.07c2.38,0,4.07,0.56,5.47,2.1s1.96,3.37,1.96,5.61c0,1.54-0.56,2.38-1.96,2.38
		c-0.84,0-1.4-0.56-1.82-1.54c-0.56-1.96-0.98-2.95-0.98-3.09c-0.56-0.98-1.82-1.54-3.09-1.54c-1.54,0-3.09,0.56-4.35,1.82
		c-0.84,0.56-1.96,1.82-3.37,3.65v18.94h7.57c1.82,0,2.52,0.56,2.52,1.96s-0.84,2.1-2.52,2.1H37.17c-1.82,0-2.52-0.56-2.52-2.1
		c0-1.4,0.84-2.1,2.52-2.1h6.17L43.2,268.36z"/>
	<path id="XMLID_55_" class="st0" d="M73.64,257.14v4.49c0,4.91,3.37,7.15,10.1,7.15c2.52,0,4.49-0.14,6.03-0.84
		c0.84-0.14,2.1-0.98,4.07-2.38c1.12-1.12,2.1-1.68,2.52-1.68c1.12,0,1.82,0.56,1.82,1.68c0,1.12-0.84,2.52-2.52,3.93
		c-2.67,2.1-6.87,3.37-12.06,3.37c-9.4,0-14.03-3.65-14.03-11.36v-11.08c0-2.52,0.98-4.91,2.95-6.59c2.52-2.52,6.45-3.65,11.5-3.65
		c9.12,0,13.61,4.63,13.61,13.89c0,2.38-0.98,3.37-2.52,3.37L73.64,257.14z M73.64,253.07H93.7c0-6.03-3.37-9.12-10.1-9.12
		c-2.52,0-4.63,0.56-6.87,1.82c-1.96,1.54-3.09,3.09-3.09,5.05L73.64,253.07L73.64,253.07z"/>
	<path id="XMLID_58_" class="st0" d="M108.85,257.14v4.49c0,4.91,3.37,7.15,10.1,7.15c2.52,0,4.49-0.14,6.03-0.84
		c0.84-0.14,2.1-0.98,4.07-2.38c1.12-1.12,2.1-1.68,2.52-1.68c1.12,0,1.82,0.56,1.82,1.68c0,1.12-0.84,2.52-2.52,3.93
		c-2.67,2.1-6.87,3.37-12.06,3.37c-9.4,0-14.03-3.65-14.03-11.36v-11.08c0-2.52,0.98-4.91,2.95-6.59c2.52-2.52,6.45-3.65,11.5-3.65
		c9.12,0,13.61,4.63,13.61,13.89c0,2.38-0.98,3.37-2.52,3.37L108.85,257.14z M108.85,253.07h20.06c0-6.03-3.37-9.12-10.1-9.12
		c-2.52,0-4.63,0.56-6.87,1.82c-2.1,1.54-3.09,3.09-3.09,5.05L108.85,253.07L108.85,253.07z"/>
	<path id="XMLID_59_" class="st0" d="M140.27,259.95v-17.53c0-9.4,4.91-13.89,14.59-13.89c3.93,0,7.01,0.98,9.54,2.52
		c2.67,2.1,4.07,5.05,4.07,8.84c0,1.82-0.56,2.52-2.1,2.52c-0.98,0-1.82-0.84-2.1-2.52c-0.14-1.4-0.84-2.67-1.54-3.93
		c-1.12-2.38-3.93-3.37-8.14-3.37c-3.51,0-6.17,0.98-7.86,2.67c-1.68,1.68-2.1,4.35-2.1,8v14.59c0,3.93,0.84,6.59,2.38,8.14
		c1.82,1.82,4.35,2.95,7.86,2.95c5.47,0,8.56-1.96,9.4-5.61c0.42-1.54,0.42-2.1,0.42-2.38c0.42-0.84,0.98-1.12,1.82-1.12
		c1.4,0,2.1,0.98,2.1,2.52c0,3.51-1.54,6.17-4.35,8.42c-2.38,1.54-5.33,2.38-9.12,2.38c-4.49,0-8-0.98-10.52-3.09
		C141.68,267.66,140.27,264.16,140.27,259.95z"/>
	<path id="XMLID_63_" class="st0" d="M174.92,262.47v-11.64c0-7.15,4.63-10.66,14.03-10.66c9.4,0,14.03,3.51,14.03,10.66v11.64
		c0,7.15-4.63,10.66-13.89,10.66C179.69,272.99,174.92,269.49,174.92,262.47z M198.91,262.47v-11.64c0-4.49-3.37-6.59-10.1-6.59
		c-6.45,0-9.96,2.38-9.96,6.59v11.64c0,4.49,3.37,6.59,10.1,6.59C195.82,268.93,198.91,266.68,198.91,262.47z"/>
	<path id="XMLID_69_" class="st0" d="M233.84,269.07c-1.96,1.54-3.51,2.38-5.05,2.95c-1.54,0.56-3.51,0.98-5.61,0.98
		c-3.65,0-6.87-0.84-9.12-2.38c-2.67-1.82-4.07-4.49-4.07-8.14v-12.06c0-3.51,1.4-6.17,3.93-8c2.1-1.54,5.33-2.38,8.84-2.38
		c2.38,0,4.35,0.14,5.89,0.84c1.54,0.56,3.37,1.54,5.05,3.09v-14.59c0-1.96,0.56-2.95,1.96-2.95s2.1,0.98,2.1,2.95v41.52
		c0,1.54-0.56,2.1-1.96,2.1c-0.84,0-1.4-0.42-1.54-1.4C233.98,271.03,233.84,270.19,233.84,269.07z M233.56,264.44v-16.41
		c-1.96-1.54-3.51-2.52-4.91-2.95c-1.82-0.56-3.51-0.98-5.47-0.98c-2.52,0-4.63,0.42-6.17,1.54c-1.96,1.12-3.09,3.09-3.09,5.33
		v11.36c0,2.38,0.98,4.07,3.09,5.47c1.82,0.98,3.65,1.54,6.45,1.54c2.1,0,4.07-0.42,5.61-0.98
		C230.47,267.1,232.01,265.98,233.56,264.44z"/>
	<path id="XMLID_72_" class="st0" d="M249.13,257.14v4.49c0,4.91,3.37,7.15,10.1,7.15c2.52,0,4.49-0.14,6.03-0.84
		c0.84-0.14,2.1-0.98,4.07-2.38c1.12-1.12,2.1-1.68,2.52-1.68c1.12,0,1.82,0.56,1.82,1.68c0,1.12-0.84,2.52-2.52,3.93
		c-2.67,2.1-6.87,3.37-12.06,3.37c-9.4,0-14.03-3.65-14.03-11.36v-11.08c0-2.52,0.98-4.91,2.95-6.59c2.52-2.52,6.45-3.65,11.5-3.65
		c9.12,0,13.61,4.63,13.61,13.89c0,2.38-0.98,3.37-2.52,3.37L249.13,257.14z M249.13,253.07h20.06c0-6.03-3.37-9.12-10.1-9.12
		c-2.52,0-4.63,0.56-6.87,1.82c-2.1,1.54-3.09,3.09-3.09,5.05V253.07z"/>
	<path id="XMLID_77_" class="st0" d="M280.55,259.95v-17.53c0-9.4,4.91-13.89,14.59-13.89c3.93,0,7.01,0.98,9.54,2.52
		c2.67,2.1,4.07,5.05,4.07,8.84c0,1.82-0.56,2.52-2.1,2.52c-0.98,0-1.82-0.84-2.1-2.52c-0.14-1.4-0.84-2.67-1.54-3.93
		c-1.12-2.38-3.93-3.37-8.14-3.37c-3.51,0-6.17,0.98-7.86,2.67c-1.54,1.82-2.1,4.35-2.1,8v14.59c0,3.93,0.84,6.59,2.38,8.14
		c1.68,1.82,4.35,2.95,7.86,2.95c5.47,0,8.56-1.96,9.4-5.61c0.42-1.54,0.42-2.1,0.42-2.38c0.42-0.84,0.98-1.12,1.68-1.12
		c1.4,0,2.1,0.98,2.1,2.52c0,3.51-1.54,6.17-4.35,8.42c-2.38,1.54-5.33,2.38-9.12,2.38c-4.49,0-8-0.98-10.52-3.09
		C281.95,267.66,280.55,264.16,280.55,259.95z"/>
	<path id="XMLID_80_" class="st0" d="M337.78,269.07c-1.96,1.54-3.51,2.52-4.63,2.95c-1.54,0.56-3.37,0.98-5.47,0.98
		c-3.37,0-6.17-0.56-8.42-2.1c-2.52-1.82-3.65-4.07-3.65-7.43c0-3.37,1.4-5.89,3.93-7.86c2.1-1.68,5.05-2.52,8.56-2.52
		c2.67,0,5.89,0.56,9.54,1.96v-5.05c0-2.38-1.12-4.07-3.37-5.05c-1.54-0.56-3.51-0.98-5.61-0.98c-5.33,0-8,1.54-8.56,4.49
		c-0.14,1.4-0.42,2.1-0.42,2.1c-0.42,0.56-0.98,0.98-1.82,0.98c-1.54,0-2.1-0.84-2.1-2.38c0-2.1,0.84-4.07,2.52-5.89
		c1.96-2.38,5.61-3.37,10.94-3.37c4.07,0,7.15,0.56,9.12,2.1c2.38,1.82,3.51,4.49,3.51,8.56V265c0,1.68,0.42,2.95,0.98,3.37
		c0,0,0.84,0.42,1.96,0.98c0.56,0.42,0.98,0.98,0.98,1.96c0,1.12-0.56,1.82-1.82,1.82c-0.42,0-0.98,0-1.82-0.42
		c-1.54-0.56-2.52-0.98-2.67-0.98C338.48,271.03,338.06,270.19,337.78,269.07z M337.64,264.86v-6.03c-3.09-0.98-6.17-1.54-8.84-1.54
		c-6.03,0-8.98,1.96-8.98,5.89c0,2.1,0.98,3.65,2.67,4.49c1.54,0.84,3.37,1.12,5.47,1.12c1.96,0,3.65-0.42,5.19-1.12
		C334.27,267.38,335.68,266.4,337.64,264.86z"/>
	<path id="XMLID_81_" class="st0" d="M353.35,243.4c0.98-1.12,1.96-2.1,2.52-2.52c0.98-0.56,1.96-0.98,3.51-0.98
		c2.1,0,4.07,1.12,5.89,3.51c1.12-1.4,2.1-2.38,3.09-2.67c0.98-0.56,2.38-0.84,3.93-0.84c4.91,0,7.15,2.38,7.15,7.15v23
		c0,1.96-0.56,2.95-2.1,2.95c-1.4,0-1.96-0.98-1.96-2.95v-21.6c0-2.95-1.12-4.49-3.51-4.49c-1.82,0-3.51,1.12-5.05,3.37v22.72
		c0,1.96-0.56,2.95-1.96,2.95s-1.96-0.98-1.96-2.95v-21.04c0-3.37-1.4-4.91-3.93-4.91c-1.82,0-3.37,1.12-4.91,3.37v22.86
		c0,1.96-0.56,2.95-2.1,2.95c-1.4,0-1.96-0.98-1.96-2.95v-28.05c0-1.4,0.56-2.1,1.82-2.1c0.56,0,1.12,0.42,1.54,1.12
		C353.21,241.85,353.35,242.83,353.35,243.4z"/>
	<path id="XMLID_84_" class="st0" d="M389.82,243.4c3.09-2.38,6.87-3.37,10.94-3.37c8.56,0,12.62,3.65,12.62,10.66v11.64
		c0,3.37-1.12,6.03-3.51,8c-2.1,1.82-5.05,2.52-8.84,2.52c-4.35,0-8-1.12-11.36-3.51v13.47c0,2.1-0.56,3.09-1.96,3.09
		s-1.96-0.98-1.96-3.09v-39.7c0-2.1,0.56-3.09,1.68-3.09c0.56,0,1.12,0.42,1.54,1.12C389.26,241.99,389.4,242.83,389.82,243.4z
		 M389.82,265c2.95,2.52,6.45,3.93,10.52,3.93c2.52,0,4.63-0.42,6.17-1.54c1.96-1.12,2.67-2.95,2.67-5.05v-11.64
		c0-2.52-0.98-4.07-3.09-5.33c-1.54-0.84-3.65-1.12-6.17-1.12c-2.38,0-4.35,0.42-5.61,0.98c-1.4,0.56-2.67,1.82-4.63,3.65V265
		L389.82,265L389.82,265z"/>
	<path id="XMLID_85_" class="st0" d="M427.27,253.64c0-8.98,3.09-16.97,9.12-23.71c2.1-2.52,4.07-3.93,5.33-3.93
		c0.42,0,0.98,0,1.12,0.42c0.42,0.42,0.56,0.56,0.56,1.12s-0.84,1.68-2.38,3.37c-6.45,6.17-9.54,13.89-9.54,23
		c0,10.1,3.37,18.52,9.96,24.69c1.4,1.12,1.96,2.38,1.96,3.09c0,0.42-0.14,0.98-0.56,1.12c-0.42,0.42-0.84,0.56-1.12,0.56
		c-1.54,0-3.65-1.82-6.45-5.47C429.8,271.45,427.27,263.45,427.27,253.64z"/>
	<path id="XMLID_86_" class="st0" d="M512,256.02c0,8.98-3.09,16.97-9.12,23.71c-2.1,2.52-4.07,3.93-5.33,3.93
		c-0.42,0-0.98,0-1.12-0.42c-0.42-0.42-0.56-0.84-0.56-1.12c0-0.56,0.84-1.82,2.38-3.09c6.45-6.17,9.54-13.89,9.54-23
		c0-10.1-3.37-18.52-9.96-24.69c-1.4-1.12-1.96-2.38-1.96-3.09c0-0.42,0.14-0.98,0.56-1.12c0.42-0.42,0.84-0.56,1.12-0.56
		c1.54,0,3.65,1.82,6.45,5.47C509.33,238.35,512,246.48,512,256.02z"/>
	<path id="XMLID_87_" class="st0" d="M488.85,281.69h-38.72c-1.12,0-2.38-0.98-2.38-2.38s0.98-2.38,2.38-2.38h38.72
		c1.12,0,2.38,0.98,2.38,2.38C491.1,280.71,490.4,281.69,488.85,281.69z"/>
	<path id="XMLID_88_" class="st0" d="M461.36,230.91c0,0,3.37,2.38,3.37,6.17c0,7.01-9.54,14.87-9.54,22.16
		c0,8,6.03,13.05,11.64,14.59c0.84,0.14,1.12-0.84,0.14-0.98c-2.38-0.56-5.05-3.65-5.05-8.56c0-4.49,4.35-6.17,6.03-8.42
		c1.82-2.38,1.4-5.05,0.42-5.89c-0.98-0.84-0.42-1.96,1.54-0.56c1.82,1.4,3.51,3.65,2.95,6.03c-0.84,2.95,0.14,4.63,1.82,4.91
		c1.54,0.14,3.37-0.56,3.09-1.96c-0.14-1.4-0.98-2.95-0.56-2.95c1.12,0,3.51,2.67,3.51,7.01s-3.51,7.43-4.63,8.56
		c-0.56,0.56,0.14,1.54,1.12,1.12c0.42-0.14,1.4-0.84,1.96-1.12c2.67-1.96,7.15-6.03,7.15-13.61c0-8-2.95-11.5-6.03-14.45
		c-2.95-2.95-3.65-2.1-2.95-0.84c2.52,4.49,0.98,5.89-0.84,5.89c-2.1,0-2.38-5.05-3.09-8.84c-1.96-8.56-9.54-9.96-10.94-9.96
		C460.94,229.37,459.54,230.07,461.36,230.91z"/>
</g>
</svg>
