<svg width="192" height="48" viewBox="0 0 192 48" fill="none" xmlns="http://www.w3.org/2000/svg"><path d="M71.418 23.8192C71.418 21.1097 72.0229 18.942 73.2328 17.3295C74.4427 15.717 76.0997 14.9108 78.2038 14.9108C79.8872 14.9108 81.2812 15.5452 82.3858 16.8141V7.94531H87.0281V32.6615H82.8461L82.6225 30.8111C81.4653 32.265 79.9924 32.9787 78.1775 32.9787C76.1391 32.9787 74.5084 32.1725 73.2722 30.56C72.0361 28.9475 71.418 26.7005 71.418 23.8192ZM76.0471 24.1628C76.0471 25.8018 76.3233 27.0442 76.9019 27.9165C77.4674 28.7889 78.2827 29.225 79.3611 29.225C80.7946 29.225 81.794 28.617 82.3858 27.4011V20.5149C81.8072 19.2989 80.8077 18.6909 79.3874 18.6909C77.1649 18.7041 76.0471 20.5281 76.0471 24.1628Z" fill="white"></path><path d="M90.0938 10.7361C90.0938 10.0356 90.3305 9.46721 90.7907 9.01783C91.251 8.56844 91.8823 8.34375 92.6845 8.34375C93.4735 8.34375 94.1048 8.56844 94.5782 9.01783C95.0516 9.46721 95.2884 10.0488 95.2884 10.7361C95.2884 11.4498 95.0516 12.0181 94.5782 12.4675C94.1048 12.9169 93.4735 13.1416 92.6976 13.1416C91.9217 13.1416 91.2905 12.9169 90.8171 12.4675C90.3305 12.0314 90.0938 11.4498 90.0938 10.7361ZM95.0122 32.6634H90.3699V15.2431H95.0122V32.6634Z" fill="white"></path><path d="M107.714 27.8507C107.714 27.2824 107.438 26.833 106.872 26.5026C106.307 26.1721 105.412 25.8814 104.176 25.6302C100.06 24.7579 97.9952 23 97.9952 20.3566C97.9952 18.8101 98.6264 17.5281 99.9021 16.4839C101.178 15.453 102.848 14.9375 104.899 14.9375C107.096 14.9375 108.858 15.453 110.173 16.4971C111.488 17.5413 112.146 18.8894 112.146 20.5548H107.516C107.516 19.894 107.306 19.3388 106.872 18.9027C106.451 18.4665 105.781 18.255 104.873 18.255C104.097 18.255 103.492 18.4268 103.058 18.7837C102.637 19.1406 102.414 19.59 102.414 20.1319C102.414 20.6473 102.651 21.0571 103.137 21.3743C103.624 21.6915 104.439 21.9691 105.596 22.1938C106.754 22.4184 107.714 22.6828 108.516 22.9736C110.962 23.8723 112.185 25.432 112.185 27.6525C112.185 29.2385 111.501 30.5206 110.147 31.5119C108.792 32.49 107.043 32.979 104.899 32.979C103.453 32.979 102.164 32.7147 101.033 32.1992C99.9021 31.6837 99.0209 30.97 98.3897 30.058C97.7453 29.146 97.4297 28.1679 97.4297 27.1238H101.835C101.875 27.9432 102.177 28.5777 102.743 29.0271C103.308 29.4632 104.071 29.6879 105.018 29.6879C105.899 29.6879 106.57 29.5161 107.03 29.1857C107.477 28.8288 107.714 28.3926 107.714 27.8507Z" fill="white"></path><path d="M121.904 29.2229C122.759 29.2229 123.456 28.985 123.982 28.5092C124.521 28.0334 124.797 27.4121 124.81 26.6323H129.15C129.137 27.8087 128.821 28.8925 128.19 29.8705C127.559 30.8486 126.704 31.6152 125.6 32.1571C124.508 32.699 123.298 32.9634 121.97 32.9634C119.497 32.9634 117.538 32.1703 116.105 30.5843C114.671 28.9982 113.961 26.8174 113.961 24.0285V23.7378C113.961 21.0547 114.671 18.9135 116.091 17.3142C117.512 15.7149 119.458 14.9219 121.93 14.9219C124.1 14.9219 125.836 15.5431 127.138 16.7855C128.44 18.0279 129.111 19.6801 129.137 21.7287H124.797C124.771 20.8168 124.495 20.0898 123.969 19.5215C123.43 18.9531 122.733 18.6756 121.851 18.6756C120.773 18.6756 119.958 19.0721 119.405 19.8651C118.853 20.6581 118.577 21.9402 118.577 23.7113V24.2004C118.577 25.9979 118.853 27.28 119.392 28.073C119.958 28.8396 120.786 29.2229 121.904 29.2229Z" fill="white"></path><path d="M130.585 23.793C130.585 22.0616 130.914 20.5284 131.571 19.1802C132.229 17.8321 133.189 16.7879 134.425 16.0477C135.674 15.3076 137.108 14.9375 138.752 14.9375C141.092 14.9375 142.999 15.6512 144.472 17.0919C145.945 18.5326 146.774 20.4755 146.945 22.9471L146.971 24.1367C146.971 26.8066 146.234 28.9477 144.748 30.5602C143.262 32.1727 141.277 32.979 138.778 32.979C136.279 32.979 134.293 32.1727 132.794 30.5602C131.308 28.9477 130.559 26.7669 130.559 23.9913V23.793H130.585ZM135.214 24.1235C135.214 25.7756 135.53 27.0445 136.148 27.9168C136.766 28.7891 137.647 29.2253 138.804 29.2253C139.922 29.2253 140.803 28.7891 141.434 27.93C142.066 27.0709 142.381 25.6831 142.381 23.7798C142.381 22.1541 142.066 20.8985 141.434 20.0129C140.803 19.1274 139.922 18.678 138.778 18.678C137.647 18.678 136.766 19.1274 136.148 20.0129C135.516 20.8852 135.214 22.2598 135.214 24.1235Z" fill="white"></path><path d="M155.597 26.9791L158.819 15.2422H163.658L157.819 32.6493H153.387L147.535 15.2422H152.375L155.597 26.9791Z" fill="white"></path><path d="M172.956 32.9781C170.418 32.9781 168.353 32.1983 166.749 30.6254C165.158 29.0658 164.355 26.9775 164.355 24.3605V23.9111C164.355 22.1664 164.697 20.5936 165.368 19.219C166.039 17.8444 166.999 16.7738 168.222 16.0336C169.458 15.2935 170.865 14.9102 172.443 14.9102C174.81 14.9102 176.678 15.6635 178.032 17.1571C179.387 18.6638 180.071 20.7918 180.071 23.541V25.4575H169.037C169.182 26.5942 169.642 27.5062 170.392 28.1935C171.141 28.8808 172.101 29.2244 173.245 29.2244C175.034 29.2244 176.415 28.5768 177.427 27.2815L179.703 29.8456C179.006 30.8369 178.072 31.6035 176.888 32.1586C175.705 32.7005 174.39 32.9781 172.956 32.9781ZM172.43 18.6771C171.51 18.6771 170.773 18.9943 170.194 19.6155C169.629 20.2367 169.261 21.1355 169.103 22.2986H175.534V21.9285C175.507 20.8976 175.231 20.0913 174.705 19.523C174.166 18.9546 173.403 18.6771 172.43 18.6771Z" fill="white"></path><path d="M191.948 19.6008C191.317 19.5215 190.764 19.4686 190.278 19.4686C188.529 19.4686 187.385 20.0634 186.832 21.2529V32.6462H182.203V15.2391H186.569L186.701 17.3142C187.634 15.7149 188.91 14.9219 190.554 14.9219C191.067 14.9219 191.54 14.988 192.001 15.1334L191.948 19.6008Z" fill="white"></path><path opacity="0.3" d="M40.7553 40.9605C31.4956 50.2867 16.483 50.3461 7.1445 41.1387C13.7445 47.6136 24.3242 47.5542 30.8651 40.9803C37.4454 34.347 37.4454 23.5952 30.8454 16.9817C24.2454 10.3484 13.5475 10.3682 6.96719 17.0015C0.445987 23.5556 0.406584 34.1688 6.82928 40.8021C-2.33193 31.4165 -2.27282 16.3679 6.98689 7.04168C16.3057 -2.34392 31.4168 -2.34392 40.7553 7.02187C50.0741 16.3877 50.0741 31.5947 40.7553 40.9605Z" fill="#4863F7"></path><path opacity="0.6" d="M30.8642 40.9602C24.3233 47.534 13.7435 47.5934 7.14354 41.1186C7.08443 41.0592 7.04503 41.0196 6.98593 40.9602L6.96623 40.9404C10.8474 44.8213 17.1125 44.8213 20.9937 40.9404C24.8552 37.0396 24.8552 30.7429 20.9937 26.8422C17.1125 22.981 10.8277 22.981 6.96623 26.862C3.12443 30.7231 3.10473 36.9604 6.88742 40.8612C6.88742 40.8612 6.88742 40.8612 6.86772 40.8414C6.86772 40.8414 6.86772 40.8414 6.84802 40.8216L6.82832 40.8018L6.80861 40.782C0.40562 34.1685 0.445023 23.5552 6.98593 16.9813C13.5859 10.3481 24.2642 10.3481 30.8642 16.9615C37.4642 23.5948 37.4642 34.3467 30.8642 40.9602Z" fill="#4863F7"></path><path opacity="0.4" d="M6.96716 40.9633C6.92733 40.9234 6.88749 40.8836 6.84766 40.8438L6.86757 40.8637C6.90741 40.9035 6.94725 40.9433 6.96716 40.9633Z" fill="#4863F7"></path><path d="M20.9967 40.9613C17.1352 44.862 10.8504 44.862 6.96919 40.9613C6.92979 40.9217 6.91008 40.9019 6.87068 40.8623C3.08799 36.9615 3.10769 30.7242 6.94949 26.8631C10.811 22.9623 17.0958 22.9623 20.977 26.8631C24.8582 30.744 24.8582 37.0605 20.9967 40.9613Z" fill="#4863F7"></path></svg>